<svg aria-hidden="true" style="position:absolute;width:0;height:0;overflow:hidden" xmlns="http://www.w3.org/2000/svg">
  <defs>
    <symbol id="iconfacebook" viewBox="0 0 16 32">
      <path d="M14.143 15.971H10.11v14.865H3.998V15.971H1.092v-5.222h2.906V7.367c0-2.417 1.142-6.204 6.167-6.204l4.527.019v5.072h-3.284c-.538 0-1.297.272-1.297 1.425v3.073h4.567l-.534 5.219z"/>
    </symbol>
    <symbol id="icondomicon" viewBox="0 0 32 32">
      <path d="M30.129 15.446a1.42 1.42 0 0 0-.118-2.051l-.002-.002L16.372 1.624a1.712 1.712 0 0 0-2.217.026l.002-.002L.476 14.02a1.41 1.41 0 0 0-.066 2.051l.345.352c.566.586 1.487.655 2.053.155l1.022-.903v13.226a1.478 1.478 0 0 0 1.477 1.467h5.356c.812 0 1.471-.656 1.477-1.467v-9.253h6.804v9.253c-.012.812.576 1.467 1.398 1.467h5.662c.812 0 1.471-.656 1.477-1.467V15.862l.633.546c.347.3 1.078.059 1.63-.542l.389-.418z"/>
    </symbol>
    <symbol id="icontelegram" viewBox="0 0 32 32">
      <path d="m12.612 19.671-.49 6.444c.703 0 1.007-.282 1.372-.62l3.292-2.938 6.822 4.665c1.251.65 2.134.307 2.473-1.075L30.558 6.56c.399-1.727-.669-2.401-1.887-1.978L2.348 13.989c-1.796.652-1.77 1.585-.305 2.012l6.729 1.952 15.632-9.129c.736-.455 1.405-.204.855.252L12.612 19.672z"/>
    </symbol>
    <symbol id="iconphonehead" viewBox="0 0 32 32">
      <path fill="#fff" style="fill:var(--color1, #fff)" opacity=".8" d="M16 0C7.164 0 0 7.164 0 16s7.164 16 16 16 16-7.164 16-16S24.836 0 16 0zm4.303 24.245c-2.12-.131-6.289-2.565-8.232-4.752-1.937-2.188-3.861-6.617-3.735-8.741 0 0 2.309-3.055 3.369-2.993 1.068.064 4.057 3.435 2.927 4.437-1.12.996-2.183.935-2.245 1.992-.06 1.06.935 2.188 1.927 3.311 1.003 1.128 1.997 2.247 3.06 2.307 1.06.067 1.125-.991 2.245-1.993 1.125-.997 4.12 2.379 4.055 3.439-.059 1.056-3.371 2.995-3.371 2.995z"/>
    </symbol>
    <symbol id="iconmailhead" viewBox="0 0 32 32">
      <path fill="#fff" style="fill:var(--color1, #fff)" d="M16 0C7.161 0 0 7.164 0 16c0 8.839 7.161 16 16 16 8.835 0 16-7.161 16-16 0-8.836-7.165-16-16-16zm9.569 9.371.023.004-8.929 8.931a.814.814 0 0 1-1.121-.003L6.609 9.371H25.57zm-19.584.598c0-.007.004-.011.004-.011l6.068 6.065-6.072 6.072V9.968zm.598 12.828c-.027 0-.052-.013-.079-.017l6.155-6.153 2.279 2.279c.308.311.724.48 1.165.48.437 0 .853-.169 1.161-.48l2.204-2.205 6.096 6.097H6.583zm19.585-.602-6.096-6.096 6.096-6.096v12.192z"/>
    </symbol>
    <symbol id="iconmenuX" viewBox="0 0 32 32">
      <path d="M31.439 3.166 28.273 0 15.72 12.553 3.167 0 .001 3.166l12.553 12.553L.001 28.272l3.166 3.166L15.72 18.885l12.553 12.553 3.166-3.166-12.553-12.553L31.439 3.166z"/>
    </symbol>
    <symbol id="icontelmenu" viewBox="0 0 48 32">
      <path d="M0 5.333V0h48v5.333H0zm0 13.334h48v-5.333H0v5.333zM0 32h48v-5.333H0V32z"/>
    </symbol>
    <symbol id="iconclose-black" viewBox="0 0 32 32">
      <path d="m26.667 7.303-1.97-1.97-7.808 7.808-7.808-7.808-1.97 1.97 7.808 7.808-7.808 7.808 1.97 1.97 7.808-7.808 7.808 7.808 1.97-1.97-7.808-7.808 7.808-7.808z"/>
    </symbol>
    <symbol id="iconemail-black" viewBox="0 0 32 32">
      <path d="M26.667 5.333H5.334A2.663 2.663 0 0 0 2.681 8l-.013 16c0 1.467 1.2 2.667 2.667 2.667h21.333c1.467 0 2.667-1.2 2.667-2.667V8c0-1.467-1.2-2.667-2.667-2.667zM26.133 11l-9.427 5.893a1.346 1.346 0 0 1-1.413 0L5.866 11a1.132 1.132 0 1 1 1.2-1.92l8.933 5.587 8.933-5.587a1.132 1.132 0 1 1 1.2 1.92z"/>
    </symbol>
    <symbol id="iconinstagram-2" viewBox="0 0 32 32">
      <path fill="#afb1b8" style="fill:var(--color2, #afb1b8)" d="M31.969 9.408c-.075-1.7-.35-2.869-.744-3.882a7.806 7.806 0 0 0-1.851-2.838A7.867 7.867 0 0 0 26.542.844C25.523.45 24.36.175 22.66.1 20.947.019 20.403 0 16.059 0s-4.888.019-6.595.094c-1.7.075-2.869.35-3.882.744a7.803 7.803 0 0 0-2.838 1.85A7.867 7.867 0 0 0 .9 5.52C.506 6.539.231 7.702.156 9.402c-.081 1.713-.1 2.257-.1 6.601s.019 4.888.094 6.595c.075 1.7.35 2.869.744 3.882a7.895 7.895 0 0 0 1.85 2.838 7.867 7.867 0 0 0 2.832 1.844c1.019.394 2.182.669 3.882.744 1.706.075 2.25.094 6.595.094s4.888-.019 6.595-.094c1.7-.075 2.869-.35 3.882-.744a8.184 8.184 0 0 0 4.682-4.682c.394-1.019.669-2.182.744-3.882.075-1.707.094-2.251.094-6.595s-.006-4.888-.081-6.595zm-2.882 13.065c-.069 1.563-.331 2.407-.55 2.969a5.31 5.31 0 0 1-3.038 3.038c-.563.219-1.413.481-2.969.55-1.688.075-2.194.094-6.464.094s-4.782-.019-6.464-.094c-1.563-.069-2.407-.331-2.969-.55a4.926 4.926 0 0 1-1.838-1.194 4.974 4.974 0 0 1-1.194-1.838c-.219-.563-.481-1.413-.55-2.969-.075-1.688-.094-2.194-.094-6.464s.019-4.782.094-6.464c.069-1.563.331-2.407.55-2.969a4.868 4.868 0 0 1 1.2-1.838A4.974 4.974 0 0 1 6.639 3.55c.563-.219 1.413-.481 2.969-.55 1.688-.075 2.194-.094 6.464-.094 4.276 0 4.782.019 6.464.094 1.563.069 2.407.331 2.969.55a4.914 4.914 0 0 1 1.838 1.194 4.974 4.974 0 0 1 1.194 1.838c.219.563.481 1.413.55 2.969.075 1.688.094 2.194.094 6.464s-.019 4.77-.094 6.458z"/>
      <path fill="#afb1b8" style="fill:var(--color2, #afb1b8)" d="M16.059 7.783c-4.538 0-8.22 3.682-8.22 8.22s3.682 8.22 8.22 8.22c4.539 0 8.22-3.682 8.22-8.22s-3.682-8.22-8.22-8.22zm0 13.552a5.333 5.333 0 0 1 0-10.664 5.333 5.333 0 0 1 0 10.664zM26.524 7.458a1.919 1.919 0 1 1-3.838 0 1.919 1.919 0 0 1 3.838 0z"/>
    </symbol>
    <symbol id="iconperson-black" viewBox="0 0 32 32">
      <path d="M16 16c2.947 0 5.333-2.387 5.333-5.333S18.946 5.334 16 5.334c-2.947 0-5.333 2.387-5.333 5.333S13.054 16 16 16zm0 2.667c-3.56 0-10.667 1.787-10.667 5.333v1.333c0 .733.6 1.333 1.333 1.333h18.667c.733 0 1.333-.6 1.333-1.333V24c0-3.547-7.107-5.333-10.667-5.333z"/>
    </symbol>
    <symbol id="iconphone-black" viewBox="0 0 32 32">
      <path d="m24.882 19.773-3.268-.373a2.561 2.561 0 0 0-2.11.733L17.137 22.5a19.357 19.357 0 0 1-8.478-8.478l2.38-2.38a2.561 2.561 0 0 0 .733-2.11l-.373-3.242a2.575 2.575 0 0 0-2.56-2.277H6.613c-1.454 0-2.663 1.209-2.573 2.663.682 10.987 9.469 19.761 20.443 20.443 1.454.09 2.663-1.119 2.663-2.573V22.32a2.549 2.549 0 0 0-2.264-2.547z"/>
    </symbol>
    <symbol id="iconwhatsapp" viewBox="0 0 32 32">
      <path d="M27.281 4.65C24.287 1.65 20.306 0 16.062 0 7.324 0 .212 7.112.212 15.856c0 2.794.731 5.525 2.119 7.925L.081 32l8.406-2.206a15.858 15.858 0 0 0 7.575 1.931h.006c8.738 0 15.856-7.113 15.856-15.856 0-4.238-1.65-8.219-4.644-11.219zm-11.212 24.4a13.17 13.17 0 0 1-6.713-1.837l-.481-.288-4.987 1.306 1.331-4.863-.313-.5a13.086 13.086 0 0 1-2.019-7.012c0-7.269 5.912-13.181 13.188-13.181 3.519 0 6.831 1.375 9.319 3.862a13.108 13.108 0 0 1 3.856 9.325c-.006 7.275-5.919 13.188-13.181 13.188zm7.225-9.875c-.394-.2-2.344-1.156-2.706-1.288s-.625-.2-.894.2c-.262.394-1.025 1.288-1.256 1.556-.231.262-.462.3-.856.1s-1.675-.619-3.188-1.969c-1.175-1.05-1.975-2.35-2.206-2.744s-.025-.613.175-.806c.181-.175.394-.463.594-.694s.262-.394.394-.662c.131-.262.069-.494-.031-.694s-.894-2.15-1.219-2.944c-.319-.775-.65-.669-.894-.681-.231-.012-.494-.012-.756-.012s-.694.1-1.056.494c-.363.394-1.387 1.356-1.387 3.306s1.419 3.831 1.619 4.1c.2.262 2.794 4.269 6.769 5.981.944.406 1.681.65 2.256.837.95.3 1.813.256 2.494.156.762-.113 2.344-.956 2.675-1.881s.331-1.719.231-1.881c-.094-.175-.356-.275-.756-.475z"/>
    </symbol>
  </defs>
</svg>
